<svg width="42" height="40" viewBox="0 0 42 40" fill="none" xmlns="http://www.w3.org/2000/svg">
<path d="M18.1069 1.5932C18.9773 -0.531157 22.0332 -0.53098 22.9038 1.5932L22.9838 1.81293L26.6157 13.2446H38.4067C40.9109 13.2447 41.9673 16.4373 39.9575 17.9311L30.3676 25.0561L34.0229 36.562C34.787 38.9676 32.0206 40.9414 29.9946 39.436L20.5053 32.3842L11.0171 39.436C8.99106 40.9414 6.22391 38.9675 6.98775 36.562L10.643 25.0561L1.05416 17.9311C-0.955872 16.4373 0.100519 13.2446 2.60494 13.2446H14.396L18.0278 1.81293L18.1069 1.5932ZM17.313 14.6313C16.97 15.7108 15.9671 16.4448 14.8344 16.4448H5.02289C4.83023 16.4448 4.74896 16.6904 4.9036 16.8053L12.895 22.7436C13.7858 23.4055 14.1588 24.5599 13.8227 25.6176L10.7879 35.1664C10.729 35.3515 10.9419 35.5033 11.0977 35.3875L18.9546 29.5502C19.8751 28.8662 21.1355 28.8664 22.0561 29.5502L29.9121 35.3885C30.0679 35.5043 30.2808 35.3525 30.222 35.1674L27.1889 25.6176C26.8529 24.56 27.2251 23.4056 28.1157 22.7436L36.1071 16.8053C36.2617 16.6904 36.1804 16.4448 35.9878 16.4448H26.1762C25.0437 16.4446 24.0416 15.7107 23.6987 14.6313L20.696 5.18053C20.6369 4.9946 20.3738 4.99461 20.3147 5.18055L17.313 14.6313Z" fill="#4B4B4B"/>
</svg>
